<?xml version="1.0" encoding="UTF-8" standalone="no"?>
<svg
   xmlns:dc="http://purl.org/dc/elements/1.1/"
   xmlns:cc="http://creativecommons.org/ns#"
   xmlns:rdf="http://www.w3.org/1999/02/22-rdf-syntax-ns#"
   xmlns:svg="http://www.w3.org/2000/svg"
   xmlns="http://www.w3.org/2000/svg"
   xmlns:xlink="http://www.w3.org/1999/xlink"
   xmlns:sodipodi="http://sodipodi.sourceforge.net/DTD/sodipodi-0.dtd"
   xmlns:inkscape="http://www.inkscape.org/namespaces/inkscape"
   width="210mm"
   height="297mm"
   viewBox="0 0 210 297"
   version="1.1"
   id="svg8"
   inkscape:version="1.0 (4035a4fb49, 2020-05-01)"
   sodipodi:docname="left_arrow.svg">
  <defs
     id="defs2">
    <rect
       id="rect209"
       height="147.41071"
       width="208.64286"
       y="27.970238"
       x="180.29464" />
    <rect
       x="34.017857"
       y="81.642857"
       width="96.761905"
       height="21.166667"
       id="rect50" />
    <linearGradient
       id="linearGradient834">
      <stop
         id="stop835"
         offset="0.0000000"
         style="stop-color:#ffffff;stop-opacity:0.40000001;" />
      <stop
         id="stop836"
         offset="1.0000000"
         style="stop-color:#ffffff;stop-opacity:0.10000000;" />
    </linearGradient>
    <linearGradient
       id="linearGradient837"
       xlink:href="#linearGradient834"
       gradientTransform="scale(1.2460391,0.80254304)"
       x1="36.458803"
       y1="219.68733"
       x2="232.14055"
       y2="219.68733"
       gradientUnits="userSpaceOnUse" />
  </defs>
  <sodipodi:namedview
     id="base"
     pagecolor="#ffffff"
     bordercolor="#666666"
     borderopacity="1.0"
     inkscape:pageopacity="0.0"
     inkscape:pageshadow="2"
     inkscape:zoom="0.7"
     inkscape:cx="27.000669"
     inkscape:cy="442.76401"
     inkscape:document-units="mm"
     inkscape:current-layer="layer1"
     inkscape:document-rotation="0"
     showgrid="false"
     inkscape:window-width="1366"
     inkscape:window-height="705"
     inkscape:window-x="-8"
     inkscape:window-y="-8"
     inkscape:window-maximized="1" />
  <metadata
     id="metadata5">
    <rdf:RDF>
      <cc:Work
         rdf:about="">
        <dc:format>image/svg+xml</dc:format>
        <dc:type
           rdf:resource="http://purl.org/dc/dcmitype/StillImage" />
        <dc:title></dc:title>
      </cc:Work>
    </rdf:RDF>
  </metadata>
  <g
     inkscape:label="Слой 1"
     inkscape:groupmode="layer"
     id="layer1">
    <g
       id="g843"
       transform="matrix(-0.26458333,0,0,-0.26458333,155.40213,161.27537)">
      <path
         sodipodi:nodetypes="ccccccccccc"
         id="path833"
         d="m 344.12039,71.988369 c -0.78564,0.03119 -1.44043,0.17924 -2,0.4375 -17.90633,8.26447 9.62499,99.156251 9.625,99.156251 0,0 -279.603309,-5.51205 -292.000004,1.375 -12.396694,6.88705 -12.459194,166.4567 -0.0625,173.34375 12.396697,6.88704 292.031254,1.375 292.031254,1.375 1e-5,-10e-6 -27.56258,90.92303 -9.65625,99.1875 17.52138,8.08678 149.69258,-97.25227 151.5,-184.375 h 0.0625 c 0.0888,-1.89525 0.008,-3.80453 -0.0312,-5.71875 C 491.83945,172.42929 367.93468,71.042939 344.12039,71.988369 Z"
         style="fill:#000000;fill-opacity:0.25;fill-rule:evenodd;stroke-width:3.75" />
      <path
         sodipodi:nodetypes="ccccccccccc"
         id="path831"
         d="m 332.59375,67.067148 c -0.78564,0.03119 -1.44043,0.17924 -2,0.4375 -17.90633,8.26447 9.62499,99.156252 9.625,99.156252 0,0 -279.603305,-5.51205 -292,1.375 -12.396694,6.88705 -12.459194,166.4567 -0.0625,173.34375 12.396697,6.88704 292.03125,1.375 292.03125,1.375 10e-6,-1e-5 -27.56258,90.92303 -9.65625,99.1875 17.52138,8.08678 149.69258,-97.25227 151.5,-184.375 h 0.0625 c 0.0888,-1.89525 0.008,-3.80453 -0.0312,-5.71875 C 480.31281,167.50807 356.40804,66.121718 332.59375,67.067148 Z"
         style="fill:#0000ff;fill-rule:evenodd;stroke:#000000;stroke-width:10;stroke-linejoin:round" />
      <path
         sodipodi:nodetypes="cccc"
         id="path832"
         d="m 53.719008,176.30854 c -8.264463,17.90634 -15.151515,118.4573 4.132231,157.02479 6.887053,1.37742 61.983471,-75.75758 231.404961,-67.49311 C 129.47658,245.17906 53.719008,176.30854 53.719008,176.30854 Z"
         style="fill:url(#linearGradient837);fill-opacity:1;fill-rule:evenodd;stroke-width:1pt" />
    </g>
    <text
       xml:space="preserve"
       id="text48"
       style="font-style:normal;font-weight:normal;font-size:10.5833px;line-height:1.25;font-family:sans-serif;white-space:pre;shape-inside:url(#rect50);fill:#ececec;fill-opacity:1;stroke:none;"
       transform="matrix(1.279448,0,0,2.3751496,-4.0892106,-118.64886)"><tspan
         x="34.017578"
         y="91.298043"><tspan
           style="fill:#ececec">it-academy.by
</tspan></tspan></text>
    <text
       style="line-height:1.25;font-family:sans-serif;font-size:10.58333333px;white-space:pre;shape-inside:url(#rect209);"
       id="text207"
       xml:space="preserve" />
  </g>
</svg>
